<svg id="Grupo_2" data-name="Grupo 2" xmlns="http://www.w3.org/2000/svg" width="49.945" height="43.148" viewBox="0 0 49.945 43.148">
  <g id="Grupo_1" data-name="Grupo 1" transform="translate(0 0)">
    <path id="Trazado_2" data-name="Trazado 2" d="M.011,65.83A11.921,11.921,0,1,0,8.049,54.59c2.676-15.345,14.642-25.241,3.549-17.1C-.7,46.525,0,65.466.011,65.813.011,65.819.011,65.824.011,65.83Z" transform="translate(0 -34.571)" fill="#ffde5f"/>
    <path id="Trazado_3" data-name="Trazado 3" d="M266.071,65.83A11.921,11.921,0,1,0,274.11,54.59c2.676-15.345,14.642-25.241,3.549-17.1-12.3,9.031-11.6,27.972-11.587,28.32C266.072,65.819,266.071,65.824,266.071,65.83Z" transform="translate(-239.905 -34.571)" fill="#ffde5f"/>
  </g>
</svg>
