<svg xmlns="http://www.w3.org/2000/svg" width="26" height="22" viewBox="0 0 26 22">
  <g id="quote" transform="translate(165 785.429)">
    <g id="Grupo_2" data-name="Grupo 2" transform="translate(-165 -785.429)">
      <g id="Grupo_1" data-name="Grupo 1" transform="translate(0 0)">
        <path id="Trazado_2" data-name="Trazado 2" d="M.006,50.509a6.2,6.2,0,0,0,6.33,6.062,6.068,6.068,0,1,0,0-12.124,6.557,6.557,0,0,0-2.05.331c1.424-7.824,7.8-12.87,1.89-8.717C-.374,40.666,0,50.324.006,50.5.006,50.5.006,50.506.006,50.509Z" transform="translate(0 -34.571)" fill="#163137"/>
        <path id="Trazado_3" data-name="Trazado 3" d="M266.066,50.509a6.336,6.336,0,1,0,6.33-6.062,6.556,6.556,0,0,0-2.05.331c1.424-7.824,7.8-12.87,1.89-8.717-6.549,4.6-6.176,14.262-6.169,14.439C266.067,50.5,266.066,50.506,266.066,50.509Z" transform="translate(-252.726 -34.571)" fill="#163137"/>
      </g>
    </g>
  </g>
</svg>
