<svg xmlns="http://www.w3.org/2000/svg" width="74.106" height="64.021" viewBox="0 0 74.106 64.021"><g transform="translate(0 0)"><path d="M.016,80.951A17.688,17.688,0,1,0,11.943,64.275c3.97-22.768,21.725-37.451,5.266-25.367C-1.041,52.308,0,80.412.017,80.927.017,80.935.016,80.942.016,80.951Z" transform="translate(0 -34.571)" fill="#bc6ff1"/><path d="M266.076,80.951A17.688,17.688,0,1,0,278,64.275c3.97-22.768,21.725-37.451,5.266-25.367-18.25,13.4-17.213,41.5-17.193,42.019C266.077,80.935,266.076,80.942,266.076,80.951Z" transform="translate(-227.252 -34.571)" fill="#bc6ff1"/></g></svg>