<svg xmlns="http://www.w3.org/2000/svg" width="36" height="31" viewBox="0 0 36 31">
  <g id="Grupo_2" data-name="Grupo 2" transform="translate(0 0)">
    <g id="Grupo_1" data-name="Grupo 1">
      <path id="Trazado_2" data-name="Trazado 2" d="M.008,57.029a8.589,8.589,0,0,0,8.635,8.542,8.542,8.542,0,1,0,0-17.084,8.685,8.685,0,0,0-2.8.467C7.789,37.929,16.48,30.819,8.424,36.671-.51,43.159,0,56.768.008,57.017.008,57.021.008,57.025.008,57.029Z" transform="translate(0 -34.571)" fill="#ff3644"/>
      <path id="Trazado_3" data-name="Trazado 3" d="M266.068,57.029a8.636,8.636,0,1,0,8.635-8.542,8.684,8.684,0,0,0-2.8.467c1.943-11.025,10.634-18.135,2.578-12.283-8.933,6.489-8.426,20.1-8.416,20.346C266.069,57.021,266.068,57.025,266.068,57.029Z" transform="translate(-247.338 -34.571)" fill="#ff3644"/>
    </g>
  </g>
</svg>
